<?xml version="1.0" encoding="UTF-8" standalone="no"?>
<!-- Created with Inkscape (http://www.inkscape.org/) -->

<svg
   xmlns:dc="http://purl.org/dc/elements/1.1/"
   xmlns:cc="http://creativecommons.org/ns#"
   xmlns:rdf="http://www.w3.org/1999/02/22-rdf-syntax-ns#"
   xmlns:svg="http://www.w3.org/2000/svg"
   xmlns="http://www.w3.org/2000/svg"
   xmlns:sodipodi="http://sodipodi.sourceforge.net/DTD/sodipodi-0.dtd"
   xmlns:inkscape="http://www.inkscape.org/namespaces/inkscape"
   width="744.09448819"
   height="1052.3622047"
   id="svg2"
   version="1.1"
   inkscape:version="0.48.4 r9939"
   sodipodi:docname="New document 1">
  <defs
     id="defs4" />
  <sodipodi:namedview
     id="base"
     pagecolor="#ffffff"
     bordercolor="#666666"
     borderopacity="1.0"
     inkscape:pageopacity="0.0"
     inkscape:pageshadow="2"
     inkscape:zoom="1.4"
     inkscape:cx="295.24364"
     inkscape:cy="661.40155"
     inkscape:document-units="px"
     inkscape:current-layer="layer1"
     showgrid="false"
     inkscape:window-width="1920"
     inkscape:window-height="1003"
     inkscape:window-x="-9"
     inkscape:window-y="-9"
     inkscape:window-maximized="1" />
  <metadata
     id="metadata7">
    <rdf:RDF>
      <cc:Work
         rdf:about="">
        <dc:format>image/svg+xml</dc:format>
        <dc:type
           rdf:resource="http://purl.org/dc/dcmitype/StillImage" />
        <dc:title></dc:title>
      </cc:Work>
    </rdf:RDF>
  </metadata>
  <g
     inkscape:label="Layer 1"
     inkscape:groupmode="layer"
     id="layer1">
    <rect
       style="fill:#cc0a5f;fill-opacity:0.94117647;stroke:#ffffff;stroke-width:2;stroke-linecap:round;stroke-linejoin:round;stroke-miterlimit:4;stroke-opacity:1;stroke-dasharray:none"
       id="rect3786"
       width="337.14285"
       height="335.71429"
       x="211.24998"
       y="181.29076" />
    <path
       style="fill:none;stroke:#ffffff;stroke-width:2;stroke-linecap:butt;stroke-linejoin:miter;stroke-miterlimit:4;stroke-opacity:1;stroke-dasharray:none"
       d="m 430.72719,203.32627 c 0,0 -34.45768,38.77908 -48.07149,51.33998 -13.6138,12.56091 -17.99094,19.3728 -21.47104,24.96353 -3.48011,5.59073 -23.89583,35.08967 -23.89583,35.08967 0,0 -4.33568,5.90231 -4.36836,12.77202 -0.0327,6.86969 1.65454,19.07637 1.65454,19.07637 l -3.77911,5.99778 c 0,0 -0.65152,13.59876 1.3392,22.91828 1.1691,5.47318 -0.88826,7.18126 -0.88826,7.18126 0,0 -20.96611,22.47654 -28.4414,32.65293 m 13.53049,70.4314 c 0,0 54.93427,-85.90491 59.80896,-103.63193 7.90747,-7.35212 16.38028,-8.64865 16.38028,-8.64865 0,0 3.73763,-5.08819 -0.67338,-6.76165 -0.42067,-4.39585 7.25043,-17.54862 6.12475,-19.00222 5.17491,-2.779 8.78815,-5.13842 7.30445,-17.19559 -1.61922,-13.1584 0.65962,-9.85604 -1.30151,-19.1304 -1.33814,-6.3282 3.24647,-18.92307 -0.23862,-23.98993 7.90368,-2.65464 22.93006,-17.68132 36.45716,-23.72556"
       id="path2996"
       inkscape:connector-curvature="0"
       sodipodi:nodetypes="csscsccscccccccsscc" />
    <path
       style="fill:none;stroke:#ffffff;stroke-width:2;stroke-linecap:butt;stroke-linejoin:miter;stroke-opacity:1;stroke-miterlimit:4;stroke-dasharray:none"
       d="m 398.32957,347.65101 c -4.34444,-0.0578 -10.99427,-3.37584 -11.22293,-6.0506 -0.22863,-2.67475 -1.79527,-12.91273 -2.56414,-19.11783 -0.76886,-6.2051 -0.29522,-4.29043 1.61447,-15.42164 1.90968,-11.13122 -9.27557,-13.39394 -9.27557,-13.39394 l -17.53985,-1.29034 c 0,0 -9.09973,4.28286 -3.16852,6.44631 5.9312,2.16345 16.16918,0.59682 29.48139,8.49552"
       id="path3000"
       inkscape:connector-curvature="0" />
    <path
       style="fill:none;stroke:#ffffff;stroke-width:2;stroke-linecap:butt;stroke-linejoin:miter;stroke-opacity:1;stroke-miterlimit:4;stroke-dasharray:none"
       d="m 355.05991,298.632 c 0,0 -13.88892,0.13817 -8.6839,10.54198 6.89481,2.55793 14.24193,-0.19217 18.8565,1.6308 4.61455,1.82298 18.52479,8.90755 19.40548,11.12124"
       id="path3004"
       inkscape:connector-curvature="0"
       sodipodi:nodetypes="ccsc" />
    <path
       style="fill:none;stroke:#ffffff;stroke-width:2;stroke-linecap:butt;stroke-linejoin:miter;stroke-opacity:1;stroke-miterlimit:4;stroke-dasharray:none"
       d="m 346.37601,309.17398 c 0,0 -11.8757,2.74145 -4.95005,10.15126 8.35113,7.07457 13.86001,2.03407 17.36144,3.66608 3.50144,1.63199 10.45406,-0.1545 15.23068,2.72758 4.77662,2.88207 10.15127,4.95004 12.10361,8.26429"
       id="path3006"
       inkscape:connector-curvature="0"
       sodipodi:nodetypes="cccsc" />
    <path
       style="fill:none;stroke:#ffffff;stroke-width:2;stroke-linecap:butt;stroke-linejoin:miter;stroke-opacity:1;stroke-miterlimit:4;stroke-dasharray:none"
       d="m 360.60659,323.07424 c 0,0 -8.41962,0.76837 -3.45498,8.11599 2.10186,3.11073 4.11202,2.08052 7.96649,3.6585 3.85445,1.57799 4.81429,6.66998 5.49146,8.73416 2.98633,0.62691 9.37861,3.4424 13.51953,3.3507 3.31424,-1.95234 4.10324,-3.87958 4.10324,-3.87958"
       id="path3008"
       inkscape:connector-curvature="0"
       sodipodi:nodetypes="cssccc" />
    <path
       style="fill:none;stroke:#ffffff;stroke-width:2;stroke-linecap:butt;stroke-linejoin:miter;stroke-opacity:1;stroke-miterlimit:4;stroke-dasharray:none"
       d="m 346.94673,336.78959 c 0,0 9.47205,16.01254 11.25339,18.62781 2.56292,3.76277 14.73703,7.10914 20.34411,7.15438 5.60708,0.0453 14.54885,-3.09981 16.88692,-6.70929"
       id="path3010"
       inkscape:connector-curvature="0"
       sodipodi:nodetypes="cssc" />
    <path
       style="fill:none;stroke:#ffffff;stroke-width:2;stroke-linecap:butt;stroke-linejoin:miter;stroke-opacity:1;stroke-miterlimit:4;stroke-dasharray:none"
       d="m 339.01494,346.06908 c 0,0 8.86473,17.7924 11.07463,21.60919 2.2099,3.8168 18.4042,6.93886 24.25626,6.22402 5.85207,-0.71483 17.21951,-5.52534 18.26983,-11.64752"
       id="path3012"
       inkscape:connector-curvature="0"
       sodipodi:nodetypes="cssc" />
    <path
       style="fill:none;stroke:#ffffff;stroke-width:2;stroke-linecap:butt;stroke-linejoin:miter;stroke-opacity:1;stroke-miterlimit:4;stroke-dasharray:none"
       d="m 333.89905,359.85873 c 0,0 3.83434,9.71031 9.19264,15.21313 6.90738,3.82057 9.93518,3.53789 15.72943,7.16749 8.87608,3.69997 15.81616,0.65086 17.97582,-0.58288"
       id="path3014"
       inkscape:connector-curvature="0"
       sodipodi:nodetypes="cccc" />
    <path
       style="fill:none;stroke:#ffffff;stroke-width:2;stroke-linecap:butt;stroke-linejoin:miter;stroke-opacity:1;stroke-miterlimit:4;stroke-dasharray:none"
       d="m 331.71548,373.92225 c 0,0 2.69609,6.9941 5.96511,10.64882 3.26899,3.65473 14.48963,5.70613 15.92039,6.05438 3.18986,0.77644 8.09466,-3.76775 4.96261,-8.88863"
       id="path3016"
       inkscape:connector-curvature="0"
       sodipodi:nodetypes="cssc" />
    <path
       style="fill:#8a466e;fill-opacity:1;stroke:#8a466e;stroke-width:0.71428572999999995;stroke-linecap:round;stroke-linejoin:round;stroke-miterlimit:4;stroke-opacity:1;stroke-dasharray:none"
       d="m 349.05514,388.33006 c -9.11303,-2.45558 -10.73731,-3.67592 -14.27031,-10.72147 -2.12073,-4.22919 -2.47895,-6.40419 -2.76456,-16.78571 l -0.21125,-7.67857 1.98936,-3.08057 1.98936,-3.08058 -0.70336,-6.02657 c -0.38685,-3.31461 -0.7352,-8.43728 -0.77411,-11.38371 -0.0659,-4.99139 -0.007,-5.53339 0.87,-7.93866 0.51741,-1.41983 1.38992,-3.34797 1.93892,-4.28477 l 0.99817,-1.70326 0.31409,1.21212 c 0.50376,1.94407 3.90929,5.06232 6.87369,6.29384 2.23283,0.9276 2.90733,1.038 6.31161,1.03305 l 3.81161,-0.006 -0.54833,1.06037 c -1.07177,2.07256 0.25899,6.11348 2.68577,8.15548 0.60187,0.50645 2.33626,1.20727 4.20343,1.6985 2.58719,0.68066 3.41693,1.07554 4.45853,2.12187 1.0938,1.09876 2.38928,3.78362 3.29418,6.82712 0.22512,0.75714 10.13949,3.67038 13.10803,3.85166 2.28336,0.13944 2.35337,0.11666 3.92409,-1.27724 l 1.59925,-1.41921 1.9078,1.07669 c 1.0493,0.59219 3.01015,1.41577 4.35745,1.8302 l 2.44965,0.75349 -1.39357,3.39286 c -1.57889,3.84401 -2.44491,4.77203 -6.04257,6.47517 -6.83226,3.2344 -13.24624,3.32049 -22.34122,0.29986 -4.11928,-1.3681 -6.7162,-2.86731 -7.97371,-4.60325 -0.54956,-0.75865 -3.2922,-5.17374 -6.09475,-9.81129 -2.80255,-4.63755 -5.22566,-8.43192 -5.38469,-8.43192 -0.15903,0 -0.62513,0.28125 -1.03578,0.625 -0.74387,0.62268 -0.72536,0.66015 4.98412,10.08929 3.15192,5.20535 6.00135,9.73631 6.33207,10.06878 3.04012,3.05625 14.2974,6.71693 20.65582,6.71693 2.99575,0 7.14526,-0.86659 10.44214,-2.18076 1.45173,-0.57867 2.71428,-0.97735 2.80568,-0.88596 0.31223,0.31224 -1.01711,3.24325 -1.98202,4.37008 -2.29087,2.67529 -6.47667,5.12256 -11.49888,6.72294 -2.48254,0.79108 -3.68651,0.96511 -6.60714,0.955 -7.24404,-0.0251 -18.11043,-2.85232 -20.24255,-5.26679 -0.32984,-0.37351 -3.03432,-5.46029 -6.00998,-11.30395 -2.97565,-5.84367 -5.48868,-10.62484 -5.5845,-10.62484 -0.17458,0 -1.62227,0.71528 -1.86191,0.91993 -0.19839,0.16943 10.98907,22.02496 11.64543,22.75023 2.71793,3.00327 16.45324,6.36579 23.97449,5.86915 5.00488,-0.33048 11.72764,-2.99596 15.67994,-6.21689 1.47333,-1.20069 1.56186,-1.22526 2.41072,-0.66907 0.58365,0.38243 0.87944,0.90626 0.87595,1.55131 -0.0102,1.8823 -0.72811,2.61043 -3.40384,3.45217 -4.16147,1.30913 -9.13955,4.05412 -12.15721,6.70365 -4.03947,3.54671 -13.15678,3.83514 -19.05535,0.60283 -1.09201,-0.59841 -3.96961,-1.88468 -6.39465,-2.85839 -6.1139,-2.45487 -7.64751,-3.28922 -9.04345,-4.92007 -1.50049,-1.75298 -5.23155,-8.02996 -6.5528,-11.02414 -1.0244,-2.32148 -1.37013,-2.56281 -2.49405,-1.74097 -0.64827,0.47402 -0.63066,0.58299 0.50471,3.12219 1.56452,3.49897 4.37371,8.2246 6.41229,10.78676 1.87846,2.36093 3.31308,3.19935 10.12355,5.91641 4.40271,1.75649 7.00949,3.06722 7.50702,3.77466 0.81882,1.16428 -0.0891,3.87067 -1.73198,5.16299 -1.25177,0.98464 -2.67564,0.92236 -7.2804,-0.31843 l 0,0 z"
       id="path3792"
       inkscape:connector-curvature="0" />
    <path
       style="fill:#8a466e;fill-opacity:1;stroke:#8a466e;stroke-opacity:1"
       d="m 395.57819,345.9866 c -2.8458,-0.76641 -5.67212,-2.33845 -6.7993,-3.78185 -0.50098,-0.64152 -3.29532,-20.41556 -3.29496,-23.31663 1.3e-4,-0.99838 0.49337,-4.46703 1.0961,-7.7081 1.20692,-6.49004 1.1973,-8.56725 -0.0528,-11.40034 -1.23315,-2.79465 -4.32229,-5.51321 -7.60216,-6.69017 -0.8814,-0.31628 -5.20162,-0.81254 -10.71293,-1.23058 l -9.23587,-0.70055 -1.58189,0.92705 c -2.55665,1.4983 -4.00902,2.95852 -4.25692,4.27995 -0.18121,0.96596 -0.43407,1.24803 -1.2866,1.43528 -0.58359,0.12818 -1.14916,0.14495 -1.25684,0.0373 -0.10767,-0.10768 0.36687,-0.96672 1.05455,-1.90899 0.68768,-0.94227 4.02811,-5.89179 7.42318,-10.99893 9.74821,-14.66403 12.00229,-17.38313 24.44769,-29.49127 10.61097,-10.32342 21.98477,-22.34679 38.92857,-41.15184 4.71429,-5.23214 8.60972,-9.3975 8.65651,-9.25636 0.15939,0.48077 8.66397,56.6827 8.66445,57.25841 2.9e-4,0.34966 -1.28801,1.30637 -3.3031,2.45293 -3.90207,2.22022 -8.825,5.50445 -18.90931,12.61495 -7.6553,5.39779 -12.09918,8.1836 -14.11621,8.84929 -1.37129,0.45256 -1.40258,0.61566 -0.45662,2.38061 0.89468,1.66927 0.95945,6.36682 0.17857,12.95042 -0.66448,5.60223 -0.66293,8.31333 0.007,12.10104 0.30903,1.74749 0.51352,4.94421 0.4912,7.67857 -0.021,2.57658 0.1594,6.69361 0.40097,9.14897 0.8687,8.8296 -0.13618,12.10409 -4.59196,14.96335 -0.94973,0.60944 -1.79307,1.0975 -1.87408,1.08457 -0.081,-0.0129 -0.98872,-0.25011 -2.01711,-0.52706 l 0,0 z"
       id="path3800"
       inkscape:connector-curvature="0" />
    <path
       style="fill:#15d7b1;fill-opacity:1;stroke:#15d7b1;stroke-opacity:1"
       d="m 315.84042,483.66217 c -2.3e-4,-0.0884 -2.71898,-15.34201 -6.04165,-33.89692 l -6.04123,-33.7362 1.11845,-1.44237 c 3.46421,-4.4675 12.30438,-14.64054 22.17932,-25.52339 3.68327,-4.05921 6.04662,-6.95652 6.1675,-7.56094 0.18672,-0.93358 0.27734,-0.85881 1.91646,1.58102 1.99926,2.97592 4.02843,4.45661 8.14995,5.94705 4.27312,1.54527 10.55287,2.98359 11.90822,2.72748 2.87776,-0.54379 5.29131,-3.22742 5.39872,-6.00286 l 0.0604,-1.5612 2.1457,0.44993 c 2.82755,0.59292 7.06793,0.58358 9.39743,-0.0207 1.83816,-0.47682 1.86793,-0.47202 1.66235,0.26785 -0.11513,0.41435 -1.87585,4.12837 -3.91271,8.25337 -7.13793,14.45561 -25.69546,45.80829 -49.57126,83.75 -3.7456,5.95223 -4.53671,7.13215 -4.53768,6.76786 z"
       id="path3802"
       inkscape:connector-curvature="0" />
    <path
       style="fill:#15d7b1;fill-opacity:1;stroke:#15d7b1;stroke-opacity:1"
       d="m 381.91228,345.57124 c -1.09716,-0.18968 -5.13281,-1.331 -8.10468,-2.29208 -2.00867,-0.64958 -2.25045,-0.83624 -2.63231,-2.03221 -0.825,-2.58386 -2.63169,-5.53143 -3.99637,-6.52 -0.74848,-0.5422 -2.68328,-1.33515 -4.29957,-1.76213 -1.61629,-0.42698 -3.19766,-0.96568 -3.51416,-1.19711 -1.10189,-0.80572 -2.45291,-3.18801 -2.45291,-4.32527 0,-1.16157 1.08228,-2.53694 2.14286,-2.72316 0.89859,-0.15778 8.25755,0.38711 10.53571,0.78011 2.58835,0.44651 11.18877,5.04344 13.72413,7.33555 l 1.63301,1.47634 0.56958,4.05937 c 0.31326,2.23265 0.68802,4.33009 0.8328,4.66096 0.19684,0.44989 -0.11791,0.87767 -1.24816,1.69643 -0.83126,0.60216 -1.68817,1.07295 -1.90423,1.0462 -0.21606,-0.0267 -0.79463,-0.1181 -1.2857,-0.203 z"
       id="path3804"
       inkscape:connector-curvature="0" />
    <path
       style="fill:#15d7b1;fill-opacity:1;stroke:#15d7b1;stroke-opacity:1"
       d="m 382.98371,329.52041 c -2.41517,-1.68143 -9.57972,-5.49845 -11.29843,-6.01939 -0.95551,-0.28962 -3.50514,-0.62324 -5.66586,-0.74138 -2.16071,-0.11813 -4.49107,-0.40085 -5.17857,-0.62827 -0.74303,-0.24578 -3.63998,-0.41391 -7.14286,-0.41455 -5.77562,-0.001 -5.93473,-0.0216 -7.99786,-1.03466 -4.14477,-2.03511 -6.16607,-5.2027 -4.63151,-7.25807 0.89315,-1.19628 3.87526,-2.73387 5.26962,-2.71705 0.61037,0.007 2.23475,0.21731 3.60975,0.46656 1.59867,0.28978 4.13455,0.38791 7.03368,0.27219 2.49353,-0.0995 5.28165,-0.0412 6.19584,0.12954 2.86638,0.5355 16.082,7.28283 19.33995,9.87416 0.6483,0.51565 0.88076,1.32707 1.34507,4.69499 0.30872,2.23938 0.51853,4.11088 0.46625,4.15889 -0.0523,0.048 -0.65757,-0.30432 -1.34507,-0.78296 z"
       id="path3806"
       inkscape:connector-curvature="0" />
    <path
       style="fill:#15d7b1;fill-opacity:1;stroke:#15d7b1;stroke-opacity:1"
       d="m 379.76942,316.84474 c -3.87678,-2.34741 -12.50691,-6.59315 -14.79696,-7.27962 -1.25924,-0.37747 -3.51921,-0.52796 -7.92885,-0.52796 -3.39218,0 -6.95722,-0.16934 -7.9223,-0.37631 -2.02499,-0.43428 -2.56617,-1.21883 -2.56617,-3.72016 0,-1.25973 0.20746,-1.77033 1.06958,-2.63245 1.93175,-1.93175 6.33789,-2.90563 9.33025,-2.06224 1.05688,0.29788 4.25195,0.8739 7.10017,1.28004 5.23182,0.74604 10.02598,1.89134 13.50668,3.22669 1.48451,0.56952 6.7349,3.05162 7.10168,3.35728 0.0555,0.0463 -1.17281,7.06995 -1.77071,10.12501 -0.0549,0.28064 -1.22111,-0.23845 -3.12337,-1.39028 l 0,0 z"
       id="path3808"
       inkscape:connector-curvature="0" />
    <path
       style="fill:#15d7b1;fill-opacity:1;stroke:#15d7b1;stroke-opacity:1"
       d="m 381.73371,304.02425 c -4.39793,-2.12529 -8.92045,-3.44489 -15.26975,-4.45545 -6.82234,-1.08585 -10.54645,-1.90437 -10.84228,-2.38304 -0.26784,-0.43337 1.08505,-1.89187 2.65475,-2.862 l 1.19776,-0.74026 8.58513,0.61558 c 4.72182,0.33856 9.18953,0.82881 9.92824,1.08944 3.12271,1.10176 5.42383,3.19215 6.59224,5.98854 0.56294,1.34731 0.75511,4.21231 0.27891,4.15829 -0.14732,-0.0167 -1.55357,-0.6517 -3.125,-1.4111 z"
       id="path3810"
       inkscape:connector-curvature="0" />
    <path
       style="fill:#8a466e;fill-opacity:1;stroke:#8a466e;stroke-width:0.25253814;stroke-linecap:round;stroke-linejoin:round;stroke-miterlimit:4;stroke-opacity:1;stroke-dasharray:none"
       d="m 343.15805,308.08977 1.09321,-1.58031 0.32046,0.98053 0.32047,0.98052 -0.94702,0.38879 c -0.52086,0.21384 -1.12886,0.48374 -1.35112,0.59978 -0.22226,0.11604 -0.43225,0.21099 -0.46665,0.21099 -0.0344,0 0.42939,-0.71114 1.03065,-1.5803 z"
       id="path3812"
       inkscape:connector-curvature="0" />
  </g>
</svg>
